<svg width="178" height="26" viewBox="0 0 178 26" fill="none" xmlns="http://www.w3.org/2000/svg">
    <path fill-rule="evenodd" clip-rule="evenodd" d="M13.0107 0C5.81606 0 0 5.95858 0 13.3296C0 19.2219 3.72659 24.2095 8.89642 25.975C9.54265 26.1074 9.7796 25.6881 9.7796 25.335C9.7796 25.026 9.75806 23.9667 9.75806 22.8633C6.13917 23.6577 5.38524 21.2743 5.38524 21.2743C4.80363 19.7295 3.942 19.3323 3.942 19.3323C2.75724 18.5157 4.02816 18.5157 4.02816 18.5157C5.34216 18.604 6.03147 19.884 6.03147 19.884C7.19468 21.9143 9.06875 21.3405 9.82268 20.9874C9.93038 20.1267 10.275 19.5309 10.6412 19.1999C7.75475 18.8909 4.71747 17.7433 4.71747 12.6234C4.71747 11.1668 5.23445 9.9751 6.05301 9.04821C5.92376 8.71717 5.4714 7.34891 6.18226 5.5172C6.18226 5.5172 7.28085 5.1641 9.75806 6.88546C10.792 6.59857 11.9122 6.44409 13.0107 6.44409C14.1093 6.44409 15.2295 6.59857 16.2634 6.88546C18.7406 5.1641 19.8392 5.5172 19.8392 5.5172C20.5501 7.34891 20.0977 8.71717 19.9685 9.04821C20.8086 9.9751 21.304 11.1668 21.304 12.6234C21.304 17.7433 18.2667 18.8688 15.3587 19.1999C15.8326 19.6192 16.2419 20.4136 16.2419 21.6716C16.2419 23.4591 16.2203 24.8936 16.2203 25.335C16.2203 25.6881 16.4573 26.1074 17.1035 25.975C22.2734 24.2095 25.9999 19.2219 25.9999 13.3296C26.0215 5.95858 20.1839 0 13.0107 0Z" fill="white"/>
    <path d="M34 15.1509C34 19.2363 36.4142 22 41.1952 22C45.6212 22 48.414 19.3805 48.414 15.1509V4.24032H45.3371V14.9105C45.3371 17.6502 43.704 19.1642 41.2188 19.1642C38.639 19.1642 37.0532 17.6021 37.0532 14.9105V4.24032H34V15.1509Z" fill="white"/>
    <path d="M49.9628 21.7597H52.8977V15.0547C52.8977 12.8438 54.1048 11.3057 56.0456 11.3057C57.7024 11.3057 58.6254 12.267 58.6254 14.3578V21.7597H61.584V14.0454C61.584 10.8972 60.1165 8.78238 57.2527 8.78238C55.3829 8.78238 53.8681 9.71962 53.087 11.3778H52.8977L52.5427 9.0227H49.9628V21.7597Z" fill="white"/>
    <path d="M63.2143 7.22029H66.1255V4H63.2143V7.22029ZM63.2143 21.7597H66.1255V9.0227H63.2143V21.7597Z" fill="white"/>
    <path d="M67.2747 9.0227L71.677 21.7597H75.251L79.6059 9.0227H76.4107L74.6356 14.9586L73.5232 19.02H73.3812L72.2451 14.9346L70.47 9.0227H67.2747Z" fill="white"/>
    <path d="M79.4094 15.3672C79.4094 19.4045 81.6579 22 85.4685 22C88.5217 22 90.7939 20.3418 91.2909 17.8425H88.3797C88.0483 18.9239 86.9596 19.6689 85.4685 19.6689C83.646 19.6689 82.4153 18.5154 82.4153 16.761V16.0641H91.1252C91.1962 15.6315 91.2199 15.0547 91.2199 14.6222C91.2199 10.9453 88.9004 8.78238 85.4448 8.78238C81.7762 8.78238 79.4094 11.2096 79.4094 15.3672ZM82.4153 14.0214V13.781C82.4153 12.1709 83.6223 11.0895 85.3975 11.0895C87.1253 11.0895 88.285 12.1228 88.285 13.6849V14.0214H82.4153Z" fill="white"/>
    <path d="M94.9883 9.0227C92.7162 9.0227 92.4558 10.4406 92.4558 11.5701V21.7597H95.3907V11.4499H99.296V9.0227H94.9883Z" fill="white"/>
    <path d="M102.54 17.8184H99.6527C99.6527 20.2697 101.593 22 105.025 22C108.197 22 110.303 20.51 110.303 17.9146C110.303 16.1602 109.357 14.7664 106.872 14.3578L104.576 13.9493C103.937 13.8531 102.801 13.6609 102.801 12.4833C102.801 11.5461 103.511 10.9453 104.86 10.9453C106.161 10.9453 107.014 11.522 107.037 12.7477H109.948C109.901 10.3685 108.031 8.78238 104.883 8.78238C101.854 8.78238 99.8657 10.2243 99.8657 12.7717C99.8657 14.502 100.836 15.8478 103.392 16.3044L105.83 16.761C106.351 16.8571 107.274 17.0494 107.274 18.1789C107.274 19.1883 106.469 19.8131 105.025 19.8131C103.534 19.8131 102.564 19.0921 102.54 17.8184Z" fill="white"/>
    <path d="M111.118 15.3672C111.118 19.4045 113.367 22 117.178 22C120.231 22 122.503 20.3418 123 17.8425H120.089C119.757 18.9239 118.669 19.6689 117.178 19.6689C115.355 19.6689 114.124 18.5154 114.124 16.761V16.0641H122.834C122.905 15.6315 122.929 15.0547 122.929 14.6222C122.929 10.9453 120.609 8.78238 117.154 8.78238C113.485 8.78238 111.118 11.2096 111.118 15.3672ZM114.124 14.0214V13.781C114.124 12.1709 115.331 11.0895 117.107 11.0895C118.834 11.0895 119.994 12.1228 119.994 13.6849V14.0214H114.124Z" fill="white"/>
    <path d="M133.452 19.4946C132.682 19.4946 131.815 19.5432 130.925 19.6405L136.05 14.1919C137.157 13.0243 138.481 11.5892 138.481 9.18108C138.481 6.06757 136.243 4 132.778 4C129.241 4 126.907 6.21351 127.003 9.83784H129.457V9.4C129.457 7.52703 130.708 6.26216 132.682 6.26216C134.342 6.26216 135.81 7.21081 135.81 8.81622V9.78919C135.81 10.5919 135.377 11.3946 134.149 12.7324L127.316 19.9568V21.7568H138.818V19.4946H133.452Z" fill="white"/>
    <path d="M139.773 13C139.773 19.0324 141.843 22 145.933 22C150 22 152.021 19.0324 152.021 13C152.021 6.96757 150 4 145.933 4C141.843 4 139.773 6.96757 139.773 13ZM142.541 15.627V10.373C142.541 7.62432 143.84 6.23784 145.885 6.23784C147.834 6.23784 149.254 7.47838 149.254 10.373V15.627C149.254 18.5216 147.834 19.7622 145.885 19.7622C143.84 19.7622 142.541 18.3757 142.541 15.627Z" fill="white"/>
    <path d="M159.527 19.4946C158.757 19.4946 157.89 19.5432 157 19.6405L162.125 14.1919C163.232 13.0243 164.556 11.5892 164.556 9.18108C164.556 6.06757 162.318 4 158.853 4C155.316 4 152.982 6.21351 153.078 9.83784H155.532V9.4C155.532 7.52703 156.783 6.26216 158.757 6.26216C160.417 6.26216 161.885 7.21081 161.885 8.81622V9.78919C161.885 10.5919 161.452 11.3946 160.224 12.7324L153.391 19.9568V21.7568H164.893V19.4946H159.527Z" fill="white"/>
    <path d="M172.634 19.4946C171.864 19.4946 170.998 19.5432 170.107 19.6405L175.233 14.1919C176.34 13.0243 177.663 11.5892 177.663 9.18108C177.663 6.06757 175.425 4 171.96 4C168.423 4 166.089 6.21351 166.185 9.83784H168.64V9.4C168.64 7.52703 169.891 6.26216 171.864 6.26216C173.524 6.26216 174.992 7.21081 174.992 8.81622V9.78919C174.992 10.5919 174.559 11.3946 173.332 12.7324L166.498 19.9568V21.7568H178V19.4946H172.634Z" fill="white"/>
</svg>
