<svg width="31" height="21" viewBox="0 0 31 21" fill="none" xmlns="http://www.w3.org/2000/svg">
<path d="M27.9184 0.0722656H3.90928C2.29906 0.0722656 0.989258 1.37622 0.989258 2.97549V17.169C0.989258 18.7701 2.30087 20.0723 3.90928 20.0723H27.9184C29.5261 20.0723 30.8384 18.7708 30.8384 17.169V2.97549C30.8384 1.3768 29.5292 0.0722656 27.9184 0.0722656ZM27.8396 2.00779C27.3445 2.50013 16.9452 12.8395 16.6021 13.1807C16.2216 13.559 15.6061 13.559 15.2255 13.1807C14.8821 12.8392 4.48295 2.4999 3.98799 2.00779H27.8396ZM2.93592 17.0908V3.69893L9.67057 10.3948L2.93592 17.0908ZM4.63685 18.1367L11.0471 11.7634L13.849 14.5492C14.9873 15.6811 16.84 15.6812 17.9785 14.5492L20.7804 11.7634L27.1907 18.1367H4.63685ZM28.8917 17.0908L22.157 10.3948L28.8917 3.69893L28.8917 17.0908Z" fill="white"/>
</svg>
